<?xml version="1.0" encoding="utf-8"?>
<!-- Generator: Adobe Illustrator 26.0.3, SVG Export Plug-In . SVG Version: 6.00 Build 0)  -->
<svg version="1.1" id="Слой_1" xmlns="http://www.w3.org/2000/svg" xmlns:xlink="http://www.w3.org/1999/xlink" x="0px" y="0px"
	 viewBox="0 0 1024 1024" style="enable-background:new 0 0 1024 1024;" xml:space="preserve">
<style type="text/css">
	.st0{fill:#12A200;}
	.st1{fill:#5C3400;}
	.st2{fill:#E5C900;}
	.st3{fill:#B9000F;}
	.st4{fill:#D0C700;}
	.st5{fill:#FCFF2E;}
</style>
<g>
	<polygon class="st0" points="340.6,456.6 510.4,182.9 680.1,456.6 	"/>
	<path class="st0" d="M510.4,184.4l168.3,271.5H342L510.4,184.4 M510.4,181.3L339.2,457.4h342.4L510.4,181.3L510.4,181.3z"/>
</g>
<g>
	<polygon class="st0" points="281.3,666.8 510,297.9 738.7,666.8 	"/>
	<path class="st0" d="M510,299.4L737.3,666H282.7L510,299.4 M510,296.4L279.9,667.5h460.3L510,296.4L510,296.4z"/>
</g>
<g>
	<polygon class="st0" points="229.4,893.7 509.9,441.4 790.3,893.7 	"/>
	<g>
		<path class="st0" d="M509.9,443l279.1,450H230.8L509.9,443 M509.9,439.9L228,894.5h563.8L509.9,439.9L509.9,439.9z"/>
	</g>
</g>
<g>
	<rect x="464.2" y="894.5" class="st1" width="92.2" height="102.8"/>
</g>
<g>
	<path class="st2" d="M431.3,309.8c26.3,23.1,54.1,44.1,88.4,54.9c16.5,5,34.5,7.6,51.9,8.2c18.7,1,37.9-0.7,56.9-1.4l0.5,1.5
		c-12.6,7.7-26.4,13.5-40.9,17.4c-45,12.6-98.8,4.3-131.9-28.2c-14.2-14.2-25.1-32.1-26.5-51.7C429.7,310.4,431.3,309.8,431.3,309.8
		L431.3,309.8z"/>
</g>
<g>
	<path class="st2" d="M629.5,488.1c-3.9,14.3-10.8,27.5-18.7,40.2c-24.3,38.4-62.2,69.7-106.6,86.7c-20.5,7.8-42.6,12.9-64.8,14.2
		c-3,0.1-9.1,0.4-12.1,0.4c-4.1,0.1-13.8-0.5-18-0.6c-5.9-0.6-11.9-1.3-17.8-2.1c-5.6-1.1-11.9-2.3-17.4-3.5
		c-6.5-2-16.2-4.2-22.4-6.8c-7.2-2.6-14.5-5.4-21.3-8.8c-3.4-1.7-6.9-3.3-10.2-5.1l0.6-1.4c5.5,0.8,11.5,1.9,16.9,2.9l2.8,0.5
		c8.4,1,16.7,2.5,25.1,3.1l11.1,1l11.1,0.4c87.4,2.7,149.1-35.7,208.9-90.9c10.6-9.8,20.9-20,31.4-30.8
		C628,487.5,629.5,488.1,629.5,488.1L629.5,488.1z"/>
</g>
<g>
	<path class="st2" d="M348.5,700.9c47.1,46.6,111.3,84.6,177.4,102.1c7.1,2.2,18.2,4.5,25.5,6.2c7.5,1.4,18.6,3.7,26.1,4.7l13.2,2.1
		l13.3,1.5c3.7,0.5,9.6,1.2,13.3,1.4c40.6,3.9,81.1,3.8,122.7,3.1l0.3,1.5c-42.4,11.8-86.7,17.9-131,18.1
		c-4.3-0.1-16.7-0.4-21.2-0.5c-4.8-0.3-16.6-1.1-21.2-1.5c-4.7-0.5-16.4-2-21.2-2.6c-11.6-1.9-23.6-4.2-35-7
		c-34.8-8.8-68.8-22.2-97.7-42.5c-23.1-16.3-43.1-36.8-56.2-60.9c-4.3-8-8-16.3-9.8-25.2C347,701.6,348.5,700.9,348.5,700.9
		L348.5,700.9z"/>
</g>
<ellipse class="st3" cx="452.7" cy="414.5" rx="22.2" ry="20.7"/>
<ellipse class="st3" cx="636.4" cy="573.2" rx="22.2" ry="20.7"/>
<ellipse class="st4" cx="361.3" cy="843.1" rx="22.2" ry="20.7"/>
<ellipse class="st3" cx="555.7" cy="320.1" rx="22.2" ry="20.7"/>
<ellipse class="st3" cx="659.4" cy="787.9" rx="22.2" ry="20.7"/>
<ellipse class="st3" cx="442" cy="722" rx="22.2" ry="20.7"/>
<ellipse class="st4" cx="576" cy="675.3" rx="22.2" ry="20.7"/>
<ellipse class="st4" cx="486.5" cy="502.7" rx="22.2" ry="20.7"/>
<polygon class="st5" points="510.4,92.8 531,131.8 577.3,138.1 543.8,168.5 551.8,211.4 510.4,191.1 469,211.4 476.9,168.5 
	443.4,138.1 489.7,131.8 "/>
<g>
	<path class="st5" d="M579.1,100.7c9.5-13.5,27.3-25.8,44-30.3l4.3,5.5c-7.7,11-18.8,19-30.9,25.4c-4.1,2-8.3,3.8-13.1,5
		C583.5,106.2,579.1,100.7,579.1,100.7L579.1,100.7z"/>
</g>
<g>
	<path class="st5" d="M583.2,176.4c17.2,2.2,36.7,11.8,48.3,23.9l-3.4,6c-14-1.7-26.5-7.6-37.9-15.1c-3.7-2.6-7.3-5.3-10.4-8.8
		L583.2,176.4L583.2,176.4z"/>
</g>
<g>
	<path class="st5" d="M399.2,204.8c10.7-12.7,29.7-23.4,46.7-26.5l3.8,5.8c-8.7,10.4-20.5,17.4-33.2,22.7c-4.2,1.7-8.6,3.1-13.5,3.8
		C403,210.7,399.2,204.8,399.2,204.8L399.2,204.8z"/>
</g>
<g>
	<path class="st5" d="M402.7,69.8c17.1,2.8,36.2,13.2,47.2,25.7l-3.7,5.9c-13.9-2.2-26.2-8.6-37.2-16.4c-3.6-2.7-7.1-5.6-10.1-9.2
		C399,75.7,402.7,69.8,402.7,69.8L402.7,69.8z"/>
</g>
<g>
	<path class="st5" d="M505.1,59.6c-6-15.3-6-35.7,0.1-50.9l7.3,0c4.9,12.3,5.2,25.4,3.4,38.2c-0.7,4.2-1.7,8.5-3.5,12.7L505.1,59.6
		L505.1,59.6z"/>
</g>
</svg>
